<svg fill="none" height="72" viewBox="0 0 72 72" width="72" xmlns="http://www.w3.org/2000/svg"><rect fill="#f5bc00" height="72" rx="12" width="72"/><g fill="#fff"><path d="m28.2309 32.8083 7.7681-7.7677 7.7721 7.7718 4.52-4.5199-12.2921-12.2925-12.2881 12.2883z"/><path d="m25.0394 35.9984-4.5199-4.5199-4.5201 4.5201 4.5199 4.52z"/><path d="m28.2337 39.1913 7.768 7.7677 7.7718-7.7715 4.5226 4.5175-.0023.0025-12.2921 12.2921-12.2884-12.288-.0063-.0063z"/><path d="m51.4799 40.5221 4.5201-4.5201-4.5199-4.52-4.5201 4.5202z"/><path d="m40.5838 35.9968h.0019l-4.5867-4.5866-3.3896 3.3896h-.0003l-.3892.3895-.8034.8034-.0063.0063.0063.0067 4.5825 4.5825 4.5867-4.5867.0022-.0025z"/></g></svg>