<svg fill="none" height="72" viewBox="0 0 72 72" width="72" xmlns="http://www.w3.org/2000/svg"><rect fill="#00d395" height="72" rx="12" width="72"/><path clip-rule="evenodd" d="m21.64 47.1731c-.4971-.2939-.9095-.7118-1.197-1.2127-.2874-.5009-.4401-1.0678-.443-1.6453v-6.506c0-.774.644-1.4 1.432-1.396.252 0 .5.066.72.19l15.006 8.562c.878.5 1.42 1.42 1.42 2.414v6.74c-.0013.2228-.0466.4431-.1334.6483s-.2133.3912-.3722.5474c-.1589.1561-.3471.2793-.5538.3624s-.4278.1246-.6506.1219c-.3166.0002-.6275-.0848-.9-.246zm22.368-12.352c.88.5 1.416 1.422 1.42 2.414v13.68c0 .404-.22.778-.582.974l-3.284 1.808c-.0422.0235-.0873.0417-.134.054v-7.596c0-.984-.526-1.896-1.392-2.4l-13.176-7.716v-8.574c0-.774.644-1.4 1.434-1.396.2517.0004.499.0658.718.19l15 8.562zm6.57-10.104c.88.5 1.422 1.42 1.422 2.418v19.98c-.0025.203-.0597.4016-.1657.5748s-.2567.3146-.4363.4092l-3.114 1.646v-13.912c0-.982-.528-1.892-1.386-2.398l-13.472-7.906v-8.13c0-.248.07-.49.192-.704.1961-.3217.5098-.5543.8745-.6488.3647-.0944.7519-.0432 1.0795.1428l15.006 8.53z" fill="#fff" fill-rule="evenodd"/></svg>