<svg fill="none" height="80" viewBox="0 0 80 80" width="80" xmlns="http://www.w3.org/2000/svg" xmlns:xlink="http://www.w3.org/1999/xlink"><linearGradient id="a"><stop offset="0" stop-color="#0b46f9"/><stop offset="1" stop-color="#bbfbe0"/></linearGradient><linearGradient id="b" gradientUnits="userSpaceOnUse" x1="68.5" x2="45.6799" xlink:href="#a" y1="85.5" y2="-8.78557"/><linearGradient id="c" gradientUnits="userSpaceOnUse" x1="68.5001" x2="45.68" xlink:href="#a" y1="85.5" y2="-8.78554"/><linearGradient id="d" gradientUnits="userSpaceOnUse" x1="6.00006" x2="45.5001" y1="18" y2="47.5"><stop offset=".119792" stop-color="#8952ff" stop-opacity=".87"/><stop offset="1" stop-color="#dabdff" stop-opacity="0"/></linearGradient><mask id="e" height="80" maskUnits="userSpaceOnUse" width="80" x="0" y="0"><path d="m79.5209 22.3372-34.0677-22.33716948v12.48886948l21.8548 14.2016-2.5712 8.1356h-19.2836v10.3479h19.2836l2.5712 8.1356-21.8548 14.2016v12.4888l34.0677-22.2658-5.5708-17.6985z" fill="url(#c)"/><path d="m15.8136 45.174h19.2122v-10.3479h-19.2836l-2.4998-8.1356 21.7834-14.2016v-12.48886948l-34.067731 22.33716948 5.570821 17.6985-5.570821 17.6985 34.139131 22.2658v-12.4888l-21.8548-14.2016z" fill="url(#c)"/></mask><path d="m79.5209 22.3372-34.0677-22.3372v12.4888l21.8547 14.2017-2.5711 8.1355h-19.2836v10.3479h19.2836l2.5711 8.1356-21.8547 14.2016v12.4889l34.0677-22.2658-5.5708-17.6985z" fill="url(#b)"/><path d="m15.8135 45.1739h19.2122v-10.3479h-19.2836l-2.4997-8.1355 21.7833-14.2017v-12.4888l-34.067692 22.3372 5.570822 17.6985-5.570822 17.6985 34.139092 22.2658v-12.4889l-21.8547-14.2016z" fill="url(#b)"/><g mask="url(#e)"><path d="m1.00006.000031h78v80h-78z" fill="url(#d)"/></g></svg>