<svg fill="none" height="72" viewBox="0 0 72 72" width="72" xmlns="http://www.w3.org/2000/svg" xmlns:xlink="http://www.w3.org/1999/xlink"><clipPath id="a"><path d="m23 16h25.7143v40h-25.7143z"/></clipPath><rect fill="#fff" height="72" rx="12" width="72"/><g clip-path="url(#a)" clip-rule="evenodd" fill="#0c0c0c" fill-rule="evenodd"><path d="m40.568 24.156h-.0004l-.6361.2009v2.3957c0 1.2025-.7914 2.292-1.9242 2.6491l-6.5425 2.0631v3.5509l8.5988-2.7113c2.0396-.6351 3.2572-2.3956 3.2572-4.7098v-1.5888c0-1.0849-1.2435-2.3276-2.7528-1.8498"/><path d="m26.8869 23.1436 12.1551-3.8322c1.3279-.4179 2.3809-.3951 3.0167-.321l-1.5241-1.113c-.7025-.509-2.845-1.7001-5.4868-.8581l-11.5478 3.6411z"/><path d="m45.4057 33.6598s2.1469-1.9487 2.1469-6.1364v-1.7719c0-2.7575-3.1753-7.2377-8.2594-5.6317l-12.0605 3.8024v22.3641l3.3866-1.0677v-5.4975l10.8848-3.4316c2.0288-.6331 3.7199.9581 3.7199 2.7277v2.1797c0 2.2189-1.9594 5.3654-5.0321 6.3305l-16.6919 5.2625 3.3866 2.4832 15.0366-4.7407c3.1744-1.0097 6.6874-3.733 6.6874-9.5149v-2.2263c0-3.4963-3.2049-5.1314-3.2049-5.1314zm-5.0874-.5473-9.699 3.058v-9.7651l9.6923-3.056c2.0234-.6334 3.8544.9836 3.8544 2.6556l.0007 1.5898c0 2.7813-1.5218 4.7877-3.8484 5.5177"/><path d="m44.3783 41.1976v-2.1771c0-1.23-1.1885-2.3749-2.6211-1.9218l-.7655.2414v3.0141c0 1.4852-.9517 2.7833-2.3685 3.23l-12.2359 3.8574-.0004-23.6147-3.3869-2.4831v30.7168l16.9377-5.34c2.6562-.8373 4.4406-3.5318 4.4406-5.523"/></g></svg>