<svg fill="none" height="72" viewBox="0 0 72 72" width="72" xmlns="http://www.w3.org/2000/svg"><rect fill="#5b3ed6" height="72" rx="12" width="72"/><path d="m34.4721 21.7442c3.1521-.203 6.3575.4274 9.189 1.8378 4.1778 2.0515 7.5008 5.7592 9.0715 10.1293.6945 1.934 1.0685 3.9748 1.0685 6.0263v7.6183c0 .3099.0107.6304-.0641.9296-.171.7693-.7159 1.4425-1.4425 1.7737-.5022.2351-1.0791.2671-1.6134.1817-1.1646-.2137-2.0622-1.3036-2.0729-2.4789-.0106-2.3614 0-4.7228 0-7.0948.0214-.6732.0214-1.3891-.3419-1.9767-.5876-1.0899-2.0194-1.6134-3.1627-1.1433-.9723.3419-1.6775 1.3249-1.6882 2.3613-.0107 2.4042 0 4.7976 0 7.191 0 .4488.0213.9082-.1069 1.3356-.2457.8441-.9509 1.5279-1.795 1.763-1.1113.3099-2.3828-.1816-2.9491-1.2074-.3846-.6197-.3526-1.3677-.3419-2.0515-.0107-2.3827.0107-4.7655-.0107-7.1482-.0213-1.2074-1.015-2.2972-2.2224-2.4575-.78-.1175-1.6028.1389-2.1691.6945-.5128.4808-.8013 1.1753-.8013 1.8805v6.9452c-.0107.5877.0641 1.1861-.1603 1.731-.3419.9937-1.3463 1.7203-2.4041 1.6882-1.0792.0641-2.137-.6838-2.4789-1.6989-.1923-.5022-.1496-1.0364-.1496-1.5707 0-2.3934.0107-4.7868 0-7.1909-.0107-1.186-.9296-2.2652-2.0942-2.4789-1.0472-.2244-2.2118.3099-2.7461 1.2608-.2243.3953-.3419.8548-.3419 1.3036v7.7786c.0107.7586-.3419 1.5065-.9189 1.9874-.8761.7693-2.2972.812-3.2268.1068-.6732-.4594-1.0685-1.2394-1.0685-2.0515v-7.8748c.0107-2.981.7586-5.9514 2.1797-8.5693 1.1647-2.1369 2.7567-4.0495 4.6693-5.5668 2.8849-2.34 6.4964-3.7397 10.1934-3.9641z" fill="#fff"/></svg>