<svg fill="none" height="72" viewBox="0 0 72 72" width="72" xmlns="http://www.w3.org/2000/svg"><rect fill="#23af91" height="72" rx="12" width="72"/><path clip-rule="evenodd" d="m30.3912 36.0036 10.6624 10.6641 6.7302-6.7301c1.2034-1.0836 3.0446-1.0354 4.1897.1097 1.145 1.145 1.1932 2.9862.1096 4.1896l-8.8814 8.8832c-1.193 1.1732-3.1064 1.1732-4.2994 0l-12.8137-12.8171v7.6181c0 1.6813-1.363 3.0443-3.0443 3.0443s-3.0443-1.363-3.0443-3.0443v-23.8449c0-1.6813 1.363-3.0443 3.0443-3.0443s3.0443 1.363 3.0443 3.0443v7.6182l12.812-12.8138c1.1927-1.1741 3.1068-1.1741 4.2994 0l8.8881 8.8815c1.0836 1.2034 1.0354 3.0446-.1097 4.1897s-2.9862 1.1933-4.1897.1097l-6.7301-6.7302zm10.6674-3.0475c-1.2328-.0007-2.3446.7414-2.8168 1.8801-.4722 1.1388-.2119 2.4499.6596 3.3218.8715.872 2.1824 1.133 3.3214.6614s1.8817-1.583 1.8817-2.8158c.0005-.8082-.3202-1.5836-.8914-2.1554-.5712-.5719-1.3462-.8934-2.1545-.8938z" fill="#fff" fill-rule="evenodd"/></svg>